<?xml version="1.0" encoding="UTF-8" standalone="no"?>
<svg
   id="Layer_1"
   data-name="Layer 1"
   viewBox="0 0 350 208.62601"
   version="1.1"
   sodipodi:docname="DarkTheme_Logo_Words_less_white_space.svg"
   width="350"
   height="208.62601"
   inkscape:version="1.1.2 (0a00cf5339, 2022-02-04)"
   xmlns:inkscape="http://www.inkscape.org/namespaces/inkscape"
   xmlns:sodipodi="http://sodipodi.sourceforge.net/DTD/sodipodi-0.dtd"
   xmlns="http://www.w3.org/2000/svg"
   xmlns:svg="http://www.w3.org/2000/svg">
  <sodipodi:namedview
     id="namedview55"
     pagecolor="#222b45"
     bordercolor="#666666"
     borderopacity="1.0"
     inkscape:pageshadow="2"
     inkscape:pageopacity="0"
     inkscape:pagecheckerboard="0"
     showgrid="false"
     units="px"
     inkscape:zoom="3.2333333"
     inkscape:cx="172.8866"
     inkscape:cy="118.76289"
     inkscape:window-width="3840"
     inkscape:window-height="2021"
     inkscape:window-x="0"
     inkscape:window-y="32"
     inkscape:window-maximized="1"
     inkscape:current-layer="Layer_1"
     inkscape:document-units="in" />
  <defs
     id="defs4">
    <style
       id="style2">.cls-1{fill:#fac952;}.cls-2{fill:#23221f;}.cls-3{fill:#4c3851;}.cls-4,.cls-6{fill:none;stroke-linecap:round;stroke-linejoin:round;}.cls-4{stroke:#fac951;stroke-width:14.76px;}.cls-5{fill:#bf8abd;}.cls-6{stroke:#fac952;stroke-width:9.84px;}.cls-7{fill:#fac951;}</style>
  </defs>
  <g
     id="g81"
     transform="matrix(0.34918823,0,0,0.34918823,-13.56451,-87.869729)">
    <path
       class="cls-1"
       d="m 757.28,412.85 a 7.05,7.05 0 0 1 -5.87,-3.12 l -15.24,-22.52 a 7.08,7.08 0 0 1 3.14,-10.52 l 287,-119.56 a 7,7 0 0 1 9.69,4.87 7,7 0 0 1 -3.62,7.94 L 760.57,412.05 a 7.26,7.26 0 0 1 -3.29,0.8 z"
       id="path6" />
    <path
       class="cls-1"
       d="m 1029.14,261.48 a 2.19,2.19 0 0 1 0.94,4.12 L 758.29,407.68 a 2.16,2.16 0 0 1 -1,0.25 2.19,2.19 0 0 1 -1.8,-0.95 l -15.24,-22.53 a 2.16,2.16 0 0 1 1,-3.21 l 287,-119.57 a 2.39,2.39 0 0 1 0.9,-0.19 m 0,-9.84 a 12.22,12.22 0 0 0 -4.68,0.94 l -287,119.57 A 12,12 0 0 0 732.09,390 l 15.24,22.52 a 12,12 0 0 0 9.95,5.28 12.16,12.16 0 0 0 5.57,-1.36 l 271.79,-142.09 a 12,12 0 0 0 -5.5,-22.68 z"
       id="path8" />
    <path
       class="cls-2"
       d="m 1028.24,261.67 -287,119.57 a 2.16,2.16 0 0 0 -1,3.21 L 755.48,407 a 2.17,2.17 0 0 0 2.81,0.7 l 271.79,-142.1 a 2.17,2.17 0 0 0 -1.84,-3.93 z"
       id="path10" />
    <path
       class="cls-1"
       d="m 474.68,651.35 a 371.59,371.59 0 0 1 -54.05,-4 c -28.5,-4.23 -85.47,-17.06 -146.91,-55.36 -8.91,-5.5 -17.76,-11.5 -26.28,-17.83 a 398.23,398.23 0 0 1 -72.25,-69 98.55,98.55 0 0 1 -40.08,19.79 100.57,100.57 0 0 1 -22.31,2.48 c -22.52,0 -42.47,-7.2 -56.18,-20.28 -4.78,-4.6 -11.33,-10.85 -12.62,-20.69 -1.93,-14.73 8.77,-30 31.8,-45.34 L 76,441 c 16.44,-10.88 36.32,-16.39 59.1,-16.39 a 156.58,156.58 0 0 1 27.57,2.53 80.89,80.89 0 0 1 -14.82,-32.78 C 142,365 154.07,332 177.19,314.18 l 0.09,-0.08 c 6.52,-5 13.26,-10.2 22.27,-10.2 0.43,0 0.86,0 1.3,0 25.79,1.43 42.57,42.53 44.77,71.65 1.85,24.29 -5.88,44.9 -13.79,59.16 35.88,13.68 71.36,20.61 105.55,20.61 a 247.65,247.65 0 0 0 30.53,-1.89 c 47,-5.8 118.93,-27.75 179.91,-72 l 3.18,-2.32 c 14.07,-10.31 37.61,-27.56 72.71,-37.37 11.3,-3.16 26.77,-7.48 44.14,-7.48 a 101.55,101.55 0 0 1 27.87,3.83 c 43.09,12.14 64.41,48 68.25,55 9.4,17.36 13.81,36.76 13.1,57.65 -0.9,27.79 -10.48,50.24 -13.62,57.62 -23.27,54.79 -71.25,78.84 -113.57,100.05 -4.36,2.18 -13.41,6.71 -24.86,11.59 a 382,382 0 0 1 -145.36,31.24 q -2.48,0.11 -4.98,0.11 z"
       id="path12" />
    <path
       class="cls-1"
       d="m 199.55,308.83 h 1 c 21.48,1.2 38,38.44 40.13,67.11 2.1,27.58 -8.82,49.6 -16.05,61.28 45.33,18.1 83.57,23 112.72,23 a 249.23,249.23 0 0 0 31.14,-1.93 c 45.7,-5.64 119.38,-27.33 182.18,-72.88 13.67,-9.91 37.35,-28.6 74.34,-38.94 12.29,-3.44 26.59,-7.3 42.81,-7.3 a 97.14,97.14 0 0 1 26.53,3.65 c 42.49,12 62.77,48.05 65.26,52.64 10.16,18.76 13.09,38 12.51,55.13 -0.86,26.76 -10.08,48.49 -13.23,55.86 -22.56,53.11 -69.71,76.76 -111.25,97.58 -5.71,2.86 -14,6.95 -24.58,11.47 -30.81,13.16 -81,30 -143.5,30.84 -1.63,0 -3.27,0 -4.91,0 A 365.05,365.05 0 0 1 421.31,642.4 C 406,640.21 344,630 276.33,587.83 c -8.61,-5.32 -17.29,-11.18 -26,-17.61 a 394,394 0 0 1 -74.52,-72.13 94.07,94.07 0 0 1 -41.83,22 96.22,96.22 0 0 1 -21.22,2.35 c -18.92,0 -38.75,-5.52 -52.79,-18.91 -4.73,-4.52 -10.08,-9.8 -11.1,-17.72 -2.53,-19.3 23,-36.15 29.79,-40.71 18.15,-12 38.51,-15.55 56.37,-15.55 a 161.89,161.89 0 0 1 41.43,5.75 c -6.9,-6.5 -19.59,-20.53 -23.86,-41.9 -5.82,-29.43 7.05,-59.55 27.55,-75.35 6.29,-4.83 12,-9.24 19.36,-9.24 m 0,-9.85 c -10.68,0 -18.43,6 -25.27,11.22 l -0.09,0.07 c -11.64,9 -21.17,22.06 -26.84,36.84 a 87.26,87.26 0 0 0 -4.31,48.24 84.32,84.32 0 0 0 9.53,25.39 157,157 0 0 0 -17.45,-1 c -23.77,0 -44.56,5.79 -61.8,17.19 l -0.16,0.11 A 118.85,118.85 0 0 0 53,453.29 c -10.69,11.19 -15.36,22.57 -13.89,33.82 1.48,11.55 9.06,18.78 14.07,23.56 14.67,13.95 35.82,21.64 59.62,21.64 a 105.12,105.12 0 0 0 23.41,-2.61 102.75,102.75 0 0 0 38.22,-17.76 403,403 0 0 0 70.09,66.19 c 8.63,6.4 17.59,12.49 26.63,18.07 62.17,38.8 119.85,51.74 148.75,56.03 a 377.51,377.51 0 0 0 54.78,4 c 1.67,0 3.37,0 5,0 A 386.91,386.91 0 0 0 627,624.61 c 10.22,-4.36 18.44,-8.37 25.12,-11.71 20.53,-10.29 43.78,-21.95 64.33,-37.67 24,-18.34 40.83,-39.56 51.58,-64.87 3.23,-7.57 13.08,-30.67 14,-59.39 0.73,-21.77 -3.87,-42 -13.69,-60.14 -4,-7.37 -26.25,-44.75 -71.25,-57.43 a 106.51,106.51 0 0 0 -29.2,-4 c -18.05,0 -33.89,4.43 -45.46,7.67 -36,10.06 -60,27.64 -74.3,38.14 l -3.16,2.31 c -60.22,43.68 -131.24,65.36 -177.61,71.09 a 244.2,244.2 0 0 1 -29.94,1.85 c -31.94,0 -65.05,-6.17 -98.6,-18.35 7.24,-14.54 13.48,-34.15 11.75,-56.88 a 125.08,125.08 0 0 0 -14,-47.8 c -9.67,-17.82 -21.91,-27.63 -35.41,-28.38 -0.53,0 -1.06,0 -1.58,0 z"
       id="path14" />
    <path
       class="cls-3"
       d="m 772.27,450.72 c -0.87,26.76 -10.09,48.49 -13.23,55.86 -22.56,53.11 -69.71,76.76 -111.25,97.58 -5.71,2.86 -14,7 -24.59,11.47 -30.8,13.16 -81,30 -143.49,30.84 a 365.29,365.29 0 0 1 -58.25,-3.91 c -15.33,-2.28 -77.34,-12.47 -145,-54.66 -8.6,-5.32 -17.28,-11.18 -26,-17.61 A 394.23,394.23 0 0 1 176,498.16 a 94.12,94.12 0 0 1 -41.83,22 c -23.9,5.46 -54.52,2 -74,-16.56 C 55.39,499.1 50,493.82 49,485.9 c -2.53,-19.3 23,-36.15 29.79,-40.71 36.34,-24 81.57,-14.17 97.8,-9.8 -6.91,-6.5 -19.6,-20.53 -23.86,-41.9 -5.82,-29.43 7.05,-59.55 27.55,-75.35 6.58,-5.06 12.51,-9.65 20.39,-9.21 21.47,1.19 38,38.43 40.13,67.1 2.1,27.58 -8.82,49.6 -16.05,61.28 63.92,25.53 113.74,24.88 143.86,21.12 45.7,-5.65 119.38,-27.34 182.18,-72.89 13.67,-9.91 37.35,-28.6 74.34,-38.94 18.62,-5.21 41.83,-11.39 69.34,-3.65 42.48,12 62.77,48.05 65.26,52.64 10.19,18.76 13.12,37.96 12.54,55.13 z"
       id="path16" />
    <path
       class="cls-4"
       d="m 639.79,443.17 a 20.872566,20.872566 0 0 1 39.76,-12.72"
       id="path18" />
    <path
       class="cls-5"
       d="m 697.4,496.14 c -6,-0.1 -12,-0.15 -18.11,-0.15 C 504,496 352,533.25 276.47,587.88 c 67.67,42.22 129.68,52.41 145,54.67 a 358.85,358.85 0 0 0 58.27,3.89 c -5.16,9.75 -7.57,15.75 -12.1,25.5 -0.25,0.54 -2.76,6.94 -3.15,10.53 A 8.4,8.4 0 0 0 465,687 c 1.33,2.8 4.48,3.84 6,4.33 15.26,5 36.32,0.83 36.32,0.83 10.49,-2.56 20.38,-3.29 31.5,-8.31 22.1,-9.94 29,-12.11 38,-17.38 26.87,-15.74 39.81,-38.78 43.45,-45.42 1,-1.82 2,-3.59 2.91,-5.37 10.63,-4.52 18.9,-8.61 24.6,-11.46 41,-20.58 87.46,-43.9 110.34,-95.58 0.45,-1 0.89,-1.92 1.28,-2.95 0.1,-0.25 0.25,-0.54 0.4,-0.84 0,-0.05 0.05,-0.05 0.05,-0.1 0.1,-0.29 0.24,-0.54 0.34,-0.88 a 2.44,2.44 0 0 0 0.15,-0.35 c 0.34,-0.83 0.69,-1.72 1.08,-2.66 0.25,-0.59 0.49,-1.23 0.74,-2 h 0.05 c 0.3,-0.89 0.69,-1.83 1,-2.86 1.63,-4.53 3.5,-10.24 5.17,-16.88 -13.16,8 -37.52,14.21 -69.15,17 -0.35,0 -0.71,0 -1.07,0 z"
       id="path20" />
    <path
       class="cls-6"
       d="m 600.82,551.23 1.14,0.38 c 5.74,2 23.61,9.06 29.27,25.76 5.4,16 -3.56,31.93 -11.57,45.21 -23.4,38.78 -72,64.58 -116.13,70.36 -10.36,1.35 -23,3.27 -32.89,-1.13 a 11.18,11.18 0 0 1 -4.45,-3.23 10,10 0 0 1 -1.66,-7.12 c 2,-18.26 14.93,-35.74 23.87,-51.17 3.64,-6.27 8.43,-12.43 14.91,-16 6.86,-3.73 15.21,-2.13 22.08,-6.06 6.55,-3.75 12.23,-10.41 12.78,-18.17 0.61,-8.79 -5.35,-15.47 -7.2,-17.35"
       id="path22" />
    <path
       class="cls-5"
       d="m 64.49,760.7 h 16.29 v 8.68 a 19.55,19.55 0 0 1 7.21,-8 17.75,17.75 0 0 1 9.62,-2.54 20,20 0 0 1 6.94,1.34 l -2.14,15.22 a 12.22,12.22 0 0 0 -7.61,-2.14 c -3.07,0 -7.61,0.67 -10.81,4.68 -3.2,4.01 -3.21,8.81 -3.21,12.81 v 27.78 H 64.49 Z"
       id="path24" />
    <path
       class="cls-5"
       d="m 166.51,802.36 c -1.74,4.27 -8.28,18 -28.44,18 -9.35,0 -16.43,-2.67 -22.17,-8.15 -6.41,-6 -9.08,-13.48 -9.08,-22.56 0,-11.49 4.67,-18.56 8.81,-22.7 6.81,-6.68 14.82,-8.15 21.77,-8.15 11.75,0 18.56,4.67 22.57,9.48 6.14,7.35 6.94,16.43 6.94,22.7 v 1.34 h -43.26 a 17,17 0 0 0 2.8,9.74 c 1.74,2.41 5.34,5.48 11.62,5.48 A 14.9,14.9 0 0 0 151.55,800 Z m -15,-20.43 a 13.87,13.87 0 0 0 -27.37,0 z"
       id="path26" />
    <path
       class="cls-5"
       d="m 211,774.45 a 13.57,13.57 0 0 0 -9.49,-3.87 c -3.87,0 -6.27,1.87 -6.27,4.68 0,1.46 0.67,3.73 5.21,5.2 l 3.87,1.2 c 4.54,1.47 11.35,3.74 14.69,8.28 a 16.84,16.84 0 0 1 2.93,9.62 19.23,19.23 0 0 1 -6.4,14.69 c -4.68,4.27 -10.29,6.14 -17.36,6.14 -12,0 -18.83,-5.74 -22.44,-9.62 l 8.55,-9.88 c 3.2,3.74 8,6.68 12.82,6.68 4.54,0 8,-2.27 8,-6.28 0,-3.6 -2.94,-5.07 -5.07,-5.87 l -3.74,-1.34 c -4.14,-1.47 -8.95,-3.34 -12.42,-6.94 a 15.51,15.51 0 0 1 -4.41,-11.08 17.17,17.17 0 0 1 6,-13.09 c 4.54,-3.61 10.42,-4.14 15.09,-4.14 A 28.84,28.84 0 0 1 219,765 Z"
       id="path28" />
    <path
       class="cls-5"
       d="m 249.7,849.1 h -16.29 v -88.4 h 16.29 v 7.48 c 2.54,-3.61 8.15,-9.35 18.83,-9.35 5.07,0 13.22,1.2 19.76,7.75 4.27,4.27 8.68,11.48 8.68,23 0,13.09 -5.74,20.17 -9.08,23.37 A 28.35,28.35 0 0 1 268.26,820.43 21.92,21.92 0 0 1 249.7,811 Z m 3.87,-72 a 15.37,15.37 0 0 0 -5.47,12.42 16.39,16.39 0 0 0 5.34,12.55 15.84,15.84 0 0 0 10.68,3.93 15.47,15.47 0 0 0 10.95,-4.14 17,17 0 0 0 5.08,-12.29 17.39,17.39 0 0 0 -4.95,-12.15 17,17 0 0 0 -11.08,-4.14 14.75,14.75 0 0 0 -10.55,3.84 z"
       id="path30" />
    <path
       class="cls-5"
       d="m 325.81,721.18 v 97.34 h -16.29 v -97.34 z"
       id="path32" />
    <path
       class="cls-5"
       d="m 398.05,802.36 c -1.73,4.27 -8.28,18 -28.44,18 -9.35,0 -16.42,-2.67 -22.16,-8.15 -6.41,-6 -9.09,-13.48 -9.09,-22.56 0,-11.49 4.68,-18.56 8.82,-22.7 6.81,-6.68 14.82,-8.15 21.76,-8.15 11.75,0 18.56,4.67 22.57,9.48 6.14,7.35 6.94,16.43 6.94,22.7 v 1.34 h -43.26 a 17,17 0 0 0 2.8,9.74 c 1.74,2.41 5.35,5.48 11.62,5.48 A 14.92,14.92 0 0 0 383.1,800 Z M 383.1,781.93 a 13.87,13.87 0 0 0 -27.38,0 z"
       id="path34" />
    <path
       class="cls-5"
       d="m 411,760.7 h 16.3 v 7.48 a 21.21,21.21 0 0 1 17.89,-9.35 c 5.08,0 12.55,1.47 17.09,7.08 4,4.94 4.54,10.68 4.54,16.29 v 36.32 H 450.53 V 787 c 0,-3.21 -0.13,-8.28 -3.07,-11.35 a 10.4,10.4 0 0 0 -7.61,-2.94 c -4.27,0 -7.61,1.47 -10,5.07 -2.39,3.6 -2.53,7.88 -2.53,11.22 v 29.51 H 411 Z"
       id="path36" />
    <path
       class="cls-5"
       d="m 526.65,721.18 h 16.29 v 97.34 H 526.65 V 811 a 20.75,20.75 0 0 1 -17.76,9.35 c -17.76,0 -29.51,-13.89 -29.51,-30.85 0,-16.96 11.61,-30.71 28.7,-30.71 4.41,0 13.09,0.8 18.57,9.35 z m -30.45,68.36 c 0,9.22 6.68,16.43 16,16.43 9.32,0 16,-7.21 16,-16.43 0,-9.22 -6.68,-16.29 -16,-16.29 -9.32,0 -16,7.08 -16,16.29 z"
       id="path38" />
    <path
       class="cls-5"
       d="m 615.18,802.36 c -1.74,4.27 -8.28,18 -28.44,18 -9.35,0 -16.43,-2.67 -22.17,-8.15 -6.41,-6 -9.08,-13.48 -9.08,-22.56 0,-11.49 4.67,-18.56 8.81,-22.7 6.81,-6.68 14.82,-8.15 21.77,-8.15 11.75,0 18.56,4.67 22.57,9.48 6.14,7.35 6.94,16.43 6.94,22.7 v 1.34 h -43.26 a 17,17 0 0 0 2.8,9.74 c 1.74,2.41 5.34,5.48 11.62,5.48 A 14.9,14.9 0 0 0 600.22,800 Z m -15,-20.43 a 13.87,13.87 0 0 0 -27.37,0 z"
       id="path40" />
    <path
       class="cls-5"
       d="m 628.13,760.7 h 16.29 v 7.48 a 21.23,21.23 0 0 1 17.9,-9.35 c 5.07,0 12.55,1.47 17.09,7.08 4,4.94 4.54,10.68 4.54,16.29 v 36.32 H 667.66 V 787 c 0,-3.21 -0.14,-8.28 -3.08,-11.35 a 10.37,10.37 0 0 0 -7.61,-2.94 c -4.27,0 -7.61,1.47 -10,5.07 -2.39,3.6 -2.54,7.88 -2.54,11.22 v 29.51 h -16.3 z"
       id="path42" />
    <path
       class="cls-5"
       d="m 715.73,774.59 v 43.93 H 699.44 V 774.59 H 693 V 760.7 h 6.41 V 740.94 H 715.7 V 760.7 H 727 v 13.89 z"
       id="path44" />
    <path
       class="cls-7"
       d="m 810.94,721.18 h 16.29 v 97.34 H 810.94 V 811 a 20.75,20.75 0 0 1 -17.76,9.35 c -17.76,0 -29.51,-13.89 -29.51,-30.85 0,-16.96 11.61,-30.71 28.7,-30.71 4.41,0 13.09,0.8 18.57,9.35 z m -30.45,68.36 c 0,9.22 6.68,16.43 16,16.43 9.32,0 16,-7.21 16,-16.43 0,-9.22 -6.68,-16.29 -16,-16.29 -9.32,0 -16,7.08 -16,16.29 z"
       id="path46" />
    <path
       class="cls-7"
       d="m 887.05,760.7 h 16.29 v 57.82 H 887.05 V 811 a 20.75,20.75 0 0 1 -17.76,9.35 c -17.76,0 -29.51,-13.89 -29.51,-30.85 0,-16.96 11.62,-30.71 28.71,-30.71 4.41,0 13.08,0.8 18.56,9.35 z m -30.45,28.84 c 0,9.22 6.68,16.43 16,16.43 9.32,0 16,-7.21 16,-16.43 0,-9.22 -6.68,-16.29 -16,-16.29 -9.32,0 -16,7.08 -16,16.29 z"
       id="path48" />
    <path
       class="cls-7"
       d="m 935.12,774.59 v 43.93 h -16.29 v -43.93 h -6.41 V 760.7 h 6.41 v -19.76 h 16.29 v 19.76 h 11.22 v 13.89 z"
       id="path50" />
    <path
       class="cls-7"
       d="m 999.22,760.7 h 16.29 v 57.82 H 999.22 V 811 a 20.75,20.75 0 0 1 -17.76,9.35 c -17.76,0 -29.51,-13.89 -29.51,-30.85 0,-16.96 11.61,-30.71 28.71,-30.71 4.4,0 13.08,0.8 18.56,9.35 z m -30.45,28.84 c 0,9.22 6.68,16.43 16,16.43 9.32,0 16,-7.21 16,-16.43 0,-9.22 -6.68,-16.29 -16,-16.29 -9.32,0 -16,7.08 -16,16.29 z"
       id="path52" />
  </g>
  <text
     xml:space="preserve"
     style="font-size:10.6667px;line-height:1.25;font-family:'Open Sans';-inkscape-font-specification:'Open Sans';fill:#ffffff"
     x="28.026613"
     y="157.00052"
     id="text38453"><tspan
       sodipodi:role="line"
       id="tspan38451"
       x="28.026613"
       y="157.00052" /></text>
  <text
     xml:space="preserve"
     style="font-size:8px;line-height:1.25;font-family:'Open Sans';-inkscape-font-specification:'Open Sans'"
     x="33.636135"
     y="157.20424"
     id="text59951"><tspan
       sodipodi:role="line"
       id="tspan59949"
       x="33.636135"
       y="157.20424" /></text>
  <text
     xml:space="preserve"
     style="font-size:16px;line-height:1.25;font-family:'Open Sans';-inkscape-font-specification:'Open Sans'"
     x="28.819366"
     y="152.75426"
     id="text72803"><tspan
       sodipodi:role="line"
       id="tspan72801"
       x="28.819366"
       y="152.75426" /></text>
  <text
     xml:space="preserve"
     style="font-size:10.6667px;line-height:1.25;font-family:'Open Sans';-inkscape-font-specification:'Open Sans'"
     x="29.817724"
     y="152.20818"
     id="text90597"><tspan
       sodipodi:role="line"
       id="tspan90595"
       x="29.817724"
       y="152.20818" /></text>
  <text
     xml:space="preserve"
     style="font-size:8px;line-height:1.25;font-family:'Open Sans';-inkscape-font-specification:'Open Sans'"
     x="52.489655"
     y="166.49814"
     id="text172900"><tspan
       sodipodi:role="line"
       id="tspan172898"
       x="52.489655"
       y="166.49814" /></text>
</svg>
