<svg id="Layer_1" data-name="Layer 1" xmlns="http://www.w3.org/2000/svg" viewBox="0 0 1080 1080"><defs><style>.cls-1{fill:#fac952;}.cls-2{fill:#23221f;}.cls-3{fill:#4c3851;}.cls-4,.cls-6{fill:none;stroke-linecap:round;stroke-linejoin:round;}.cls-4{stroke:#fac951;stroke-width:14.76px;}.cls-5{fill:#bf8abd;}.cls-6{stroke:#fac952;stroke-width:9.84px;}.cls-7{fill:#fac951;}</style></defs><path class="cls-1" d="M757.28,412.85a7.05,7.05,0,0,1-5.87-3.12l-15.24-22.52a7.08,7.08,0,0,1,3.14-10.52l287-119.56A7,7,0,0,1,1036,262a7,7,0,0,1-3.62,7.94L760.57,412.05a7.26,7.26,0,0,1-3.29.8Z"/><path class="cls-1" d="M1029.14,261.48a2.19,2.19,0,0,1,.94,4.12L758.29,407.68a2.16,2.16,0,0,1-1,.25,2.19,2.19,0,0,1-1.8-.95l-15.24-22.53a2.16,2.16,0,0,1,1-3.21l287-119.57a2.39,2.39,0,0,1,.9-.19m0-9.84a12.22,12.22,0,0,0-4.68.94l-287,119.57A12,12,0,0,0,732.09,390l15.24,22.52a12,12,0,0,0,9.95,5.28,12.16,12.16,0,0,0,5.57-1.36l271.79-142.09a12,12,0,0,0-5.5-22.68Z"/><path class="cls-2" d="M1028.24,261.67l-287,119.57a2.16,2.16,0,0,0-1,3.21L755.48,407a2.17,2.17,0,0,0,2.81.7L1030.08,265.6A2.17,2.17,0,0,0,1028.24,261.67Z"/><path class="cls-1" d="M474.68,651.35a371.59,371.59,0,0,1-54.05-4c-28.5-4.23-85.47-17.06-146.91-55.36-8.91-5.5-17.76-11.5-26.28-17.83a398.23,398.23,0,0,1-72.25-69,98.55,98.55,0,0,1-40.08,19.79,100.57,100.57,0,0,1-22.31,2.48c-22.52,0-42.47-7.2-56.18-20.28C51.84,502.55,45.29,496.3,44,486.46c-1.93-14.73,8.77-30,31.8-45.34L76,441c16.44-10.88,36.32-16.39,59.1-16.39a156.58,156.58,0,0,1,27.57,2.53,80.89,80.89,0,0,1-14.82-32.78C142,365,154.07,332,177.19,314.18l.09-.08c6.52-5,13.26-10.2,22.27-10.2.43,0,.86,0,1.3,0,25.79,1.43,42.57,42.53,44.77,71.65,1.85,24.29-5.88,44.9-13.79,59.16,35.88,13.68,71.36,20.61,105.55,20.61a247.65,247.65,0,0,0,30.53-1.89c47-5.8,118.93-27.75,179.91-72l3.18-2.32c14.07-10.31,37.61-27.56,72.71-37.37,11.3-3.16,26.77-7.48,44.14-7.48a101.55,101.55,0,0,1,27.87,3.83c43.09,12.14,64.41,48,68.25,55,9.4,17.36,13.81,36.76,13.1,57.65-.9,27.79-10.48,50.24-13.62,57.62-23.27,54.79-71.25,78.84-113.57,100.05-4.36,2.18-13.41,6.71-24.86,11.59a382,382,0,0,1-145.36,31.24Q477.18,651.35,474.68,651.35Z"/><path class="cls-1" d="M199.55,308.83l1,0c21.48,1.2,38,38.44,40.13,67.11,2.1,27.58-8.82,49.6-16.05,61.28,45.33,18.1,83.57,23,112.72,23a249.23,249.23,0,0,0,31.14-1.93c45.7-5.64,119.38-27.33,182.18-72.88,13.67-9.91,37.35-28.6,74.34-38.94,12.29-3.44,26.59-7.3,42.81-7.3a97.14,97.14,0,0,1,26.53,3.65c42.49,12,62.77,48.05,65.26,52.64,10.16,18.76,13.09,38,12.51,55.13-.86,26.76-10.08,48.49-13.23,55.86-22.56,53.11-69.71,76.76-111.25,97.58-5.71,2.86-14,6.95-24.58,11.47-30.81,13.16-81,30-143.5,30.84-1.63,0-3.27,0-4.91,0a365.05,365.05,0,0,1-53.34-3.94C406,640.21,344,630,276.33,587.83c-8.61-5.32-17.29-11.18-26-17.61a394,394,0,0,1-74.52-72.13,94.07,94.07,0,0,1-41.83,22,96.22,96.22,0,0,1-21.22,2.35c-18.92,0-38.75-5.52-52.79-18.91-4.73-4.52-10.08-9.8-11.1-17.72-2.53-19.3,23-36.15,29.79-40.71,18.15-12,38.51-15.55,56.37-15.55a161.89,161.89,0,0,1,41.43,5.75c-6.9-6.5-19.59-20.53-23.86-41.9-5.82-29.43,7.05-59.55,27.55-75.35,6.29-4.83,12-9.24,19.36-9.24m0-9.85c-10.68,0-18.43,6-25.27,11.22l-.09.07c-11.64,9-21.17,22.06-26.84,36.84A87.26,87.26,0,0,0,143,395.33a84.32,84.32,0,0,0,9.53,25.39,157,157,0,0,0-17.45-1c-23.77,0-44.56,5.79-61.8,17.19l-.16.11A118.85,118.85,0,0,0,53,453.29c-10.69,11.19-15.36,22.57-13.89,33.82,1.48,11.55,9.06,18.78,14.07,23.56C67.85,524.62,89,532.31,112.8,532.31a105.12,105.12,0,0,0,23.41-2.61,102.75,102.75,0,0,0,38.22-17.76,403,403,0,0,0,70.09,66.19c8.63,6.4,17.59,12.49,26.63,18.07C333.32,635,391,647.94,419.9,652.23a377.51,377.51,0,0,0,54.78,4c1.67,0,3.37,0,5,0A386.91,386.91,0,0,0,627,624.61c10.22-4.36,18.44-8.37,25.12-11.71,20.53-10.29,43.78-21.95,64.33-37.67,24-18.34,40.83-39.56,51.58-64.87,3.23-7.57,13.08-30.67,14-59.39.73-21.77-3.87-42-13.69-60.14-4-7.37-26.25-44.75-71.25-57.43a106.51,106.51,0,0,0-29.2-4c-18.05,0-33.89,4.43-45.46,7.67-36,10.06-60,27.64-74.3,38.14l-3.16,2.31c-60.22,43.68-131.24,65.36-177.61,71.09a244.2,244.2,0,0,1-29.94,1.85c-31.94,0-65.05-6.17-98.6-18.35,7.24-14.54,13.48-34.15,11.75-56.88a125.08,125.08,0,0,0-14-47.8c-9.67-17.82-21.91-27.63-35.41-28.38-.53,0-1.06,0-1.58,0Z"/><path class="cls-3" d="M772.27,450.72c-.87,26.76-10.09,48.49-13.23,55.86-22.56,53.11-69.71,76.76-111.25,97.58-5.71,2.86-14,7-24.59,11.47-30.8,13.16-81,30-143.49,30.84a365.29,365.29,0,0,1-58.25-3.91c-15.33-2.28-77.34-12.47-145-54.66-8.6-5.32-17.28-11.18-26-17.61A394.23,394.23,0,0,1,176,498.16a94.12,94.12,0,0,1-41.83,22c-23.9,5.46-54.52,2-74-16.56C55.39,499.1,50,493.82,49,485.9c-2.53-19.3,23-36.15,29.79-40.71,36.34-24,81.57-14.17,97.8-9.8-6.91-6.5-19.6-20.53-23.86-41.9-5.82-29.43,7.05-59.55,27.55-75.35,6.58-5.06,12.51-9.65,20.39-9.21,21.47,1.19,38,38.43,40.13,67.1,2.1,27.58-8.82,49.6-16.05,61.28,63.92,25.53,113.74,24.88,143.86,21.12,45.7-5.65,119.38-27.34,182.18-72.89,13.67-9.91,37.35-28.6,74.34-38.94,18.62-5.21,41.83-11.39,69.34-3.65,42.48,12,62.77,48.05,65.26,52.64C769.92,414.35,772.85,433.55,772.27,450.72Z"/><path class="cls-4" d="M639.79,443.17a20.87,20.87,0,0,1,39.76-12.72"/><path class="cls-5" d="M697.4,496.14c-6-.1-12-.15-18.11-.15C504,496,352,533.25,276.47,587.88c67.67,42.22,129.68,52.41,145,54.67a358.85,358.85,0,0,0,58.27,3.89c-5.16,9.75-7.57,15.75-12.1,25.5-.25.54-2.76,6.94-3.15,10.53A8.4,8.4,0,0,0,465,687c1.33,2.8,4.48,3.84,6,4.33,15.26,5,36.32.83,36.32.83,10.49-2.56,20.38-3.29,31.5-8.31,22.1-9.94,29-12.11,38-17.38,26.87-15.74,39.81-38.78,43.45-45.42,1-1.82,2-3.59,2.91-5.37,10.63-4.52,18.9-8.61,24.6-11.46,41-20.58,87.46-43.9,110.34-95.58.45-1,.89-1.92,1.28-2.95.1-.25.25-.54.4-.84,0-.05.05-.05.05-.1.1-.29.24-.54.34-.88a2.44,2.44,0,0,0,.15-.35c.34-.83.69-1.72,1.08-2.66.25-.59.49-1.23.74-2h.05c.3-.89.69-1.83,1-2.86,1.63-4.53,3.5-10.24,5.17-16.88-13.16,8-37.52,14.21-69.15,17-.35,0-.71,0-1.07,0Z"/><path class="cls-6" d="M600.82,551.23l1.14.38c5.74,2,23.61,9.06,29.27,25.76,5.4,16-3.56,31.93-11.57,45.21-23.4,38.78-72,64.58-116.13,70.36-10.36,1.35-23,3.27-32.89-1.13a11.18,11.18,0,0,1-4.45-3.23,10,10,0,0,1-1.66-7.12c2-18.26,14.93-35.74,23.87-51.17,3.64-6.27,8.43-12.43,14.91-16,6.86-3.73,15.21-2.13,22.08-6.06,6.55-3.75,12.23-10.41,12.78-18.17.61-8.79-5.35-15.47-7.2-17.35"/><path class="cls-5" d="M64.49,760.7H80.78v8.68a19.55,19.55,0,0,1,7.21-8,17.75,17.75,0,0,1,9.62-2.54,20,20,0,0,1,6.94,1.34l-2.14,15.22a12.22,12.22,0,0,0-7.61-2.14c-3.07,0-7.61.67-10.81,4.68s-3.21,8.81-3.21,12.81v27.78H64.49Z"/><path class="cls-5" d="M166.51,802.36c-1.74,4.27-8.28,18-28.44,18-9.35,0-16.43-2.67-22.17-8.15-6.41-6-9.08-13.48-9.08-22.56,0-11.49,4.67-18.56,8.81-22.7,6.81-6.68,14.82-8.15,21.77-8.15,11.75,0,18.56,4.67,22.57,9.48,6.14,7.35,6.94,16.43,6.94,22.7v1.34H123.65a17,17,0,0,0,2.8,9.74c1.74,2.41,5.34,5.48,11.62,5.48A14.9,14.9,0,0,0,151.55,800Zm-15-20.43a13.87,13.87,0,0,0-27.37,0Z"/><path class="cls-5" d="M211,774.45a13.57,13.57,0,0,0-9.49-3.87c-3.87,0-6.27,1.87-6.27,4.68,0,1.46.67,3.73,5.21,5.2l3.87,1.2c4.54,1.47,11.35,3.74,14.69,8.28a16.84,16.84,0,0,1,2.93,9.62,19.23,19.23,0,0,1-6.4,14.69c-4.68,4.27-10.29,6.14-17.36,6.14-12,0-18.83-5.74-22.44-9.62l8.55-9.88c3.2,3.74,8,6.68,12.82,6.68,4.54,0,8-2.27,8-6.28,0-3.6-2.94-5.07-5.07-5.87l-3.74-1.34c-4.14-1.47-8.95-3.34-12.42-6.94a15.51,15.51,0,0,1-4.41-11.08,17.17,17.17,0,0,1,6-13.09c4.54-3.61,10.42-4.14,15.09-4.14A28.84,28.84,0,0,1,219,765Z"/><path class="cls-5" d="M249.7,849.1H233.41V760.7H249.7v7.48c2.54-3.61,8.15-9.35,18.83-9.35,5.07,0,13.22,1.2,19.76,7.75,4.27,4.27,8.68,11.48,8.68,23,0,13.09-5.74,20.17-9.08,23.37a28.35,28.35,0,0,1-19.63,7.48A21.92,21.92,0,0,1,249.7,811Zm3.87-72a15.37,15.37,0,0,0-5.47,12.42,16.39,16.39,0,0,0,5.34,12.55A15.84,15.84,0,0,0,264.12,806a15.47,15.47,0,0,0,10.95-4.14,17,17,0,0,0,5.08-12.29,17.39,17.39,0,0,0-4.95-12.15,17,17,0,0,0-11.08-4.14A14.75,14.75,0,0,0,253.57,777.12Z"/><path class="cls-5" d="M325.81,721.18v97.34H309.52V721.18Z"/><path class="cls-5" d="M398.05,802.36c-1.73,4.27-8.28,18-28.44,18-9.35,0-16.42-2.67-22.16-8.15-6.41-6-9.09-13.48-9.09-22.56,0-11.49,4.68-18.56,8.82-22.7,6.81-6.68,14.82-8.15,21.76-8.15,11.75,0,18.56,4.67,22.57,9.48,6.14,7.35,6.94,16.43,6.94,22.7v1.34H355.19a17,17,0,0,0,2.8,9.74c1.74,2.41,5.35,5.48,11.62,5.48A14.92,14.92,0,0,0,383.1,800ZM383.1,781.93a13.87,13.87,0,0,0-27.38,0Z"/><path class="cls-5" d="M411,760.7H427.3v7.48a21.21,21.21,0,0,1,17.89-9.35c5.08,0,12.55,1.47,17.09,7.08,4,4.94,4.54,10.68,4.54,16.29v36.32H450.53V787c0-3.21-.13-8.28-3.07-11.35a10.4,10.4,0,0,0-7.61-2.94c-4.27,0-7.61,1.47-10,5.07s-2.53,7.88-2.53,11.22v29.51H411Z"/><path class="cls-5" d="M526.65,721.18h16.29v97.34H526.65V811a20.75,20.75,0,0,1-17.76,9.35c-17.76,0-29.51-13.89-29.51-30.85s11.61-30.71,28.7-30.71c4.41,0,13.09.8,18.57,9.35ZM496.2,789.54c0,9.22,6.68,16.43,16,16.43s16-7.21,16-16.43-6.68-16.29-16-16.29S496.2,780.33,496.2,789.54Z"/><path class="cls-5" d="M615.18,802.36c-1.74,4.27-8.28,18-28.44,18-9.35,0-16.43-2.67-22.17-8.15-6.41-6-9.08-13.48-9.08-22.56,0-11.49,4.67-18.56,8.81-22.7,6.81-6.68,14.82-8.15,21.77-8.15,11.75,0,18.56,4.67,22.57,9.48,6.14,7.35,6.94,16.43,6.94,22.7v1.34H572.32a17,17,0,0,0,2.8,9.74c1.74,2.41,5.34,5.48,11.62,5.48A14.9,14.9,0,0,0,600.22,800Zm-15-20.43a13.87,13.87,0,0,0-27.37,0Z"/><path class="cls-5" d="M628.13,760.7h16.29v7.48a21.23,21.23,0,0,1,17.9-9.35c5.07,0,12.55,1.47,17.09,7.08,4,4.94,4.54,10.68,4.54,16.29v36.32H667.66V787c0-3.21-.14-8.28-3.08-11.35a10.37,10.37,0,0,0-7.61-2.94c-4.27,0-7.61,1.47-10,5.07s-2.54,7.88-2.54,11.22v29.51H628.13Z"/><path class="cls-5" d="M715.73,774.59v43.93H699.44V774.59H693V760.7h6.41V740.94h16.29V760.7H727v13.89Z"/><path class="cls-7" d="M810.94,721.18h16.29v97.34H810.94V811a20.75,20.75,0,0,1-17.76,9.35c-17.76,0-29.51-13.89-29.51-30.85s11.61-30.71,28.7-30.71c4.41,0,13.09.8,18.57,9.35Zm-30.45,68.36c0,9.22,6.68,16.43,16,16.43s16-7.21,16-16.43-6.68-16.29-16-16.29S780.49,780.33,780.49,789.54Z"/><path class="cls-7" d="M887.05,760.7h16.29v57.82H887.05V811a20.75,20.75,0,0,1-17.76,9.35c-17.76,0-29.51-13.89-29.51-30.85s11.62-30.71,28.71-30.71c4.41,0,13.08.8,18.56,9.35ZM856.6,789.54c0,9.22,6.68,16.43,16,16.43s16-7.21,16-16.43-6.68-16.29-16-16.29S856.6,780.33,856.6,789.54Z"/><path class="cls-7" d="M935.12,774.59v43.93H918.83V774.59h-6.41V760.7h6.41V740.94h16.29V760.7h11.22v13.89Z"/><path class="cls-7" d="M999.22,760.7h16.29v57.82H999.22V811a20.75,20.75,0,0,1-17.76,9.35c-17.76,0-29.51-13.89-29.51-30.85s11.61-30.71,28.71-30.71c4.4,0,13.08.8,18.56,9.35Zm-30.45,28.84c0,9.22,6.68,16.43,16,16.43s16-7.21,16-16.43-6.68-16.29-16-16.29S968.77,780.33,968.77,789.54Z"/></svg>