<?xml version="1.0" encoding="UTF-8" standalone="no"?>
<svg
   id="Layer_1"
   data-name="Layer 1"
   viewBox="0 0 350 155.853"
   version="1.1"
   sodipodi:docname="gold_narwhal.svg"
   width="350"
   height="155.853"
   inkscape:version="1.1.2 (0a00cf5339, 2022-02-04)"
   xmlns:inkscape="http://www.inkscape.org/namespaces/inkscape"
   xmlns:sodipodi="http://sodipodi.sourceforge.net/DTD/sodipodi-0.dtd"
   xmlns="http://www.w3.org/2000/svg"
   xmlns:svg="http://www.w3.org/2000/svg">
  <sodipodi:namedview
     id="namedview55"
     pagecolor="#222b45"
     bordercolor="#666666"
     borderopacity="1.0"
     inkscape:pageshadow="2"
     inkscape:pageopacity="0"
     inkscape:pagecheckerboard="0"
     showgrid="false"
     units="px"
     inkscape:zoom="3.2333333"
     inkscape:cx="172.8866"
     inkscape:cy="118.76289"
     inkscape:window-width="3840"
     inkscape:window-height="2021"
     inkscape:window-x="0"
     inkscape:window-y="32"
     inkscape:window-maximized="1"
     inkscape:current-layer="g81"
     inkscape:document-units="in"
     height="155.853px" />
  <defs
     id="defs4">
    <style
       id="style2">.cls-1{fill:#fac952;}.cls-2{fill:#23221f;}.cls-3{fill:#4c3851;}.cls-4,.cls-6{fill:none;stroke-linecap:round;stroke-linejoin:round;}.cls-4{stroke:#fac951;stroke-width:14.76px;}.cls-5{fill:#bf8abd;}.cls-6{stroke:#fac952;stroke-width:9.84px;}.cls-7{fill:#fac951;}</style>
  </defs>
  <g
     id="g81"
     transform="matrix(0.34918823,0,0,0.34918823,-13.56451,-87.869729)">
    <g
       id="g2093">
      <path
         class="cls-1"
         d="m 1029.9191,261.05006 a 2.0481567,2.0943128 0 0 1 0.8791,3.93999 L 776.61166,400.86218 a 2.0200997,2.0656236 0 0 1 -0.93523,0.23907 2.0481567,2.0943128 0 0 1 -1.68342,-0.90849 l -14.25292,-21.5456 a 2.0200997,2.0656236 0 0 1 0.93523,-3.06975 L 1029.0867,261.23176 a 2.2352029,2.2855742 0 0 1 0.8417,-0.1817 m 0,-9.41006 a 11.428527,11.686074 0 0 0 -4.3769,0.89893 L 757.14014,366.88458 a 11.222776,11.475686 0 0 0 -5.03154,17.07009 l 14.25293,21.53603 a 11.222776,11.475686 0 0 0 9.30555,5.04931 11.372413,11.628696 0 0 0 5.20924,-1.30058 L 1035.0628,273.35774 a 11.222776,11.475686 0 0 0 -5.1437,-21.68905 z"
         id="path8"
         style="fill:#fbca52;stroke:#fbca52;stroke-width:0.82477008;stroke-opacity:1;fill-opacity:1;stroke-miterlimit:4;stroke-dasharray:none" />
      <path
         class="cls-1"
         d="m 199.55,308.83 h 1 c 21.48,1.2 38,38.44 40.13,67.11 2.1,27.58 -8.82,49.6 -16.05,61.28 45.33,18.1 83.57,23 112.72,23 a 249.23,249.23 0 0 0 31.14,-1.93 c 45.7,-5.64 119.38,-27.33 182.18,-72.88 13.67,-9.91 37.35,-28.6 74.34,-38.94 12.29,-3.44 26.59,-7.3 42.81,-7.3 a 97.14,97.14 0 0 1 26.53,3.65 c 42.49,12 62.77,48.05 65.26,52.64 10.16,18.76 13.09,38 12.51,55.13 -0.86,26.76 -10.08,48.49 -13.23,55.86 -22.56,53.11 -69.71,76.76 -111.25,97.58 -5.71,2.86 -14,6.95 -24.58,11.47 -30.81,13.16 -81,30 -143.5,30.84 -1.63,0 -3.27,0 -4.91,0 A 365.05,365.05 0 0 1 421.31,642.4 C 406,640.21 344,630 276.33,587.83 c -8.61,-5.32 -17.29,-11.18 -26,-17.61 a 394,394 0 0 1 -74.52,-72.13 94.07,94.07 0 0 1 -41.83,22 96.22,96.22 0 0 1 -21.22,2.35 c -18.92,0 -38.75,-5.52 -52.79,-18.91 -4.73,-4.52 -10.08,-9.8 -11.1,-17.72 -2.53,-19.3 23,-36.15 29.79,-40.71 18.15,-12 38.51,-15.55 56.37,-15.55 a 161.89,161.89 0 0 1 41.43,5.75 c -6.9,-6.5 -19.59,-20.53 -23.86,-41.9 -5.82,-29.43 7.05,-59.55 27.55,-75.35 6.29,-4.83 12,-9.24 19.36,-9.24 m 0,-9.85 c -10.68,0 -18.43,6 -25.27,11.22 l -0.09,0.07 c -11.64,9 -21.17,22.06 -26.84,36.84 a 87.26,87.26 0 0 0 -4.31,48.24 84.32,84.32 0 0 0 9.53,25.39 157,157 0 0 0 -17.45,-1 c -23.77,0 -44.56,5.79 -61.8,17.19 l -0.16,0.11 A 118.85,118.85 0 0 0 53,453.29 c -10.69,11.19 -15.36,22.57 -13.89,33.82 1.48,11.55 9.06,18.78 14.07,23.56 14.67,13.95 35.82,21.64 59.62,21.64 a 105.12,105.12 0 0 0 23.41,-2.61 102.75,102.75 0 0 0 38.22,-17.76 403,403 0 0 0 70.09,66.19 c 8.63,6.4 17.59,12.49 26.63,18.07 62.17,38.8 119.85,51.74 148.75,56.03 a 377.51,377.51 0 0 0 54.78,4 c 1.67,0 3.37,0 5,0 A 386.91,386.91 0 0 0 627,624.61 c 10.22,-4.36 18.44,-8.37 25.12,-11.71 20.53,-10.29 43.78,-21.95 64.33,-37.67 24,-18.34 40.83,-39.56 51.58,-64.87 3.23,-7.57 13.08,-30.67 14,-59.39 0.73,-21.77 -3.87,-42 -13.69,-60.14 -4,-7.37 -26.25,-44.75 -71.25,-57.43 a 106.51,106.51 0 0 0 -29.2,-4 c -18.05,0 -33.89,4.43 -45.46,7.67 -36,10.06 -60,27.64 -74.3,38.14 l -3.16,2.31 c -60.22,43.68 -131.24,65.36 -177.61,71.09 a 244.2,244.2 0 0 1 -29.94,1.85 c -31.94,0 -65.05,-6.17 -98.6,-18.35 7.24,-14.54 13.48,-34.15 11.75,-56.88 a 125.08,125.08 0 0 0 -14,-47.8 c -9.67,-17.82 -21.91,-27.63 -35.41,-28.38 -0.53,0 -1.06,0 -1.58,0 z"
         id="path14"
         style="fill:#fbca52;stroke:#fbca52;stroke-opacity:1;fill-opacity:1" />
      <path
         class="cls-4"
         d="m 639.79,443.17 a 20.872566,20.872566 0 0 1 39.76,-12.72"
         id="path18"
         style="stroke:#fbca52;stroke-opacity:1" />
      <path
         class="cls-6"
         d="m 600.82,551.23 1.14,0.38 c 5.74,2 23.61,9.06 29.27,25.76 5.4,16 -3.56,31.93 -11.57,45.21 -23.4,38.78 -72,64.58 -116.13,70.36 -10.36,1.35 -23,3.27 -32.89,-1.13 a 11.18,11.18 0 0 1 -4.45,-3.23 10,10 0 0 1 -1.66,-7.12 c 2,-18.26 14.93,-35.74 23.87,-51.17 3.64,-6.27 8.43,-12.43 14.91,-16 6.86,-3.73 15.21,-2.13 22.08,-6.06 6.55,-3.75 12.23,-10.41 12.78,-18.17 0.61,-8.79 -5.35,-15.47 -7.2,-17.35"
         id="path22"
         style="stroke:#fbca52;stroke-opacity:1" />
    </g>
  </g>
  <text
     xml:space="preserve"
     style="font-size:10.6667px;line-height:1.25;font-family:'Open Sans';-inkscape-font-specification:'Open Sans';fill:#ffffff"
     x="28.026613"
     y="157.00052"
     id="text38453"><tspan
       sodipodi:role="line"
       id="tspan38451"
       x="28.026613"
       y="157.00052" /></text>
  <text
     xml:space="preserve"
     style="font-size:8px;line-height:1.25;font-family:'Open Sans';-inkscape-font-specification:'Open Sans'"
     x="33.636135"
     y="157.20424"
     id="text59951"><tspan
       sodipodi:role="line"
       id="tspan59949"
       x="33.636135"
       y="157.20424" /></text>
  <text
     xml:space="preserve"
     style="font-size:16px;line-height:1.25;font-family:'Open Sans';-inkscape-font-specification:'Open Sans'"
     x="28.819366"
     y="152.75426"
     id="text72803"><tspan
       sodipodi:role="line"
       id="tspan72801"
       x="28.819366"
       y="152.75426" /></text>
  <text
     xml:space="preserve"
     style="font-size:10.6667px;line-height:1.25;font-family:'Open Sans';-inkscape-font-specification:'Open Sans'"
     x="29.817724"
     y="152.20818"
     id="text90597"><tspan
       sodipodi:role="line"
       id="tspan90595"
       x="29.817724"
       y="152.20818" /></text>
  <text
     xml:space="preserve"
     style="font-size:8px;line-height:1.25;font-family:'Open Sans';-inkscape-font-specification:'Open Sans'"
     x="52.489655"
     y="166.49814"
     id="text172900"><tspan
       sodipodi:role="line"
       id="tspan172898"
       x="52.489655"
       y="166.49814" /></text>
</svg>
