<?xml version="1.0" encoding="UTF-8" standalone="no"?>
<svg
   id="Layer_1"
   data-name="Layer 1"
   viewBox="0 0 1080 500"
   version="1.1"
   sodipodi:docname="LightTheme_Logo_narrow.svg"
   width="1080"
   height="500"
   inkscape:version="1.4.2 (ebf0e940, 2025-05-08)"
   xmlns:inkscape="http://www.inkscape.org/namespaces/inkscape"
   xmlns:sodipodi="http://sodipodi.sourceforge.net/DTD/sodipodi-0.dtd"
   xmlns="http://www.w3.org/2000/svg"
   xmlns:svg="http://www.w3.org/2000/svg">
  <sodipodi:namedview
     id="namedview9"
     pagecolor="#ffffff"
     bordercolor="#000000"
     borderopacity="0.25"
     inkscape:showpageshadow="2"
     inkscape:pageopacity="0.0"
     inkscape:pagecheckerboard="0"
     inkscape:deskcolor="#d1d1d1"
     inkscape:zoom="0.77037037"
     inkscape:cx="540"
     inkscape:cy="540"
     inkscape:window-width="2304"
     inkscape:window-height="1297"
     inkscape:window-x="226"
     inkscape:window-y="334"
     inkscape:window-maximized="0"
     inkscape:current-layer="Layer_1" />
  <defs
     id="defs1">
    <style
       id="style1">.cls-1{fill:#23221f;}.cls-2{fill:#fac951;}.cls-3{fill:#4c3851;}.cls-4,.cls-6{fill:none;stroke-linecap:round;stroke-linejoin:round;}.cls-4{stroke:#fac951;stroke-width:14.76px;}.cls-5{fill:#bf8abd;}.cls-6{stroke:#23221f;stroke-width:9.84px;}</style>
  </defs>
  <g
     id="g9"
     transform="translate(-0.00719008,-225.59162)">
    <path
       class="cls-1"
       d="m 757.28,412.85 a 7.07,7.07 0 0 1 -5.87,-3.11 l -15.24,-22.53 a 7.1,7.1 0 0 1 3.14,-10.52 l 287,-119.56 a 7,7 0 0 1 9.69,4.87 7,7 0 0 1 -3.62,7.94 L 760.57,412.05 a 7.23,7.23 0 0 1 -3.29,0.8 z"
       id="path1" />
    <path
       class="cls-1"
       d="m 1029.14,261.48 a 2.19,2.19 0 0 1 0.94,4.12 l -271.8,142.08 a 2.09,2.09 0 0 1 -1,0.25 2.19,2.19 0 0 1 -1.8,-0.95 l -15.24,-22.53 a 2.16,2.16 0 0 1 1,-3.21 l 287,-119.57 a 2.39,2.39 0 0 1 0.9,-0.19 m 0,-9.84 a 12.22,12.22 0 0 0 -4.68,0.94 l -287,119.57 A 12,12 0 0 0 732.09,390 l 15.24,22.52 a 12,12 0 0 0 9.95,5.28 12.16,12.16 0 0 0 5.57,-1.36 l 271.79,-142.09 a 12,12 0 0 0 -5.5,-22.68 z"
       id="path2" />
    <path
       class="cls-2"
       d="m 1028.24,261.67 -287,119.57 a 2.16,2.16 0 0 0 -1,3.21 L 755.48,407 a 2.17,2.17 0 0 0 2.81,0.7 l 271.79,-142.1 a 2.17,2.17 0 0 0 -1.84,-3.93 z"
       id="path3" />
    <path
       class="cls-1"
       d="m 474.68,651.35 a 371.49,371.49 0 0 1 -54.05,-4 c -28.5,-4.23 -85.46,-17.05 -146.91,-55.36 -8.9,-5.5 -17.75,-11.5 -26.28,-17.83 a 398.23,398.23 0 0 1 -72.25,-69 98.55,98.55 0 0 1 -40.08,19.79 101.17,101.17 0 0 1 -22.31,2.48 c -22.52,0 -42.47,-7.2 -56.18,-20.28 -4.78,-4.6 -11.33,-10.85 -12.62,-20.69 -1.93,-14.73 8.77,-30 31.8,-45.34 L 76,441 c 16.44,-10.88 36.32,-16.38 59.1,-16.38 a 156.55,156.55 0 0 1 27.57,2.52 80.88,80.88 0 0 1 -14.82,-32.79 C 142,365 154.07,332 177.19,314.18 l 0.09,-0.08 c 6.52,-5 13.26,-10.2 22.27,-10.2 0.43,0 0.86,0 1.3,0 25.79,1.43 42.57,42.53 44.77,71.65 1.85,24.29 -5.88,44.9 -13.8,59.16 35.89,13.68 71.37,20.61 105.56,20.61 a 247.65,247.65 0 0 0 30.53,-1.89 c 47,-5.8 118.93,-27.75 179.91,-72 l 3.18,-2.32 c 14.07,-10.31 37.61,-27.56 72.71,-37.37 11.3,-3.16 26.77,-7.48 44.14,-7.48 a 101.55,101.55 0 0 1 27.87,3.83 c 43.09,12.14 64.41,48 68.25,55 9.4,17.36 13.81,36.75 13.1,57.65 -0.9,27.79 -10.48,50.24 -13.62,57.62 -23.27,54.79 -71.25,78.84 -113.57,100.05 -6.63,3.32 -14.76,7.28 -24.86,11.59 a 382,382 0 0 1 -145.36,31.24 z"
       id="path4" />
    <path
       class="cls-1"
       d="m 199.55,308.83 h 1 c 21.48,1.2 38,38.44 40.13,67.11 2.1,27.58 -8.82,49.6 -16.05,61.28 45.33,18.1 83.57,23 112.72,23 a 249.23,249.23 0 0 0 31.14,-1.93 c 45.7,-5.64 119.38,-27.33 182.19,-72.88 13.66,-9.91 37.34,-28.6 74.33,-38.94 12.29,-3.44 26.59,-7.3 42.81,-7.3 a 97.14,97.14 0 0 1 26.53,3.65 c 42.49,12 62.77,48.05 65.26,52.64 10.16,18.76 13.09,38 12.51,55.13 -0.86,26.76 -10.08,48.49 -13.23,55.86 -22.56,53.11 -69.71,76.76 -111.25,97.58 -5.71,2.86 -14,6.95 -24.58,11.47 -30.81,13.16 -81,30 -143.5,30.84 -1.63,0 -3.27,0 -4.91,0 A 365.05,365.05 0 0 1 421.31,642.4 C 406,640.21 344,630 276.33,587.83 c -8.61,-5.32 -17.29,-11.18 -26,-17.61 a 394,394 0 0 1 -74.52,-72.13 94.07,94.07 0 0 1 -41.83,22 96.22,96.22 0 0 1 -21.22,2.35 c -18.92,0 -38.75,-5.52 -52.79,-18.91 -4.73,-4.52 -10.08,-9.8 -11.1,-17.72 -2.53,-19.3 23,-36.15 29.79,-40.71 18.15,-12 38.51,-15.55 56.37,-15.55 a 161.89,161.89 0 0 1 41.43,5.75 c -6.9,-6.5 -19.59,-20.53 -23.86,-41.9 -5.82,-29.43 7.05,-59.55 27.55,-75.35 6.29,-4.83 12,-9.24 19.36,-9.24 m 0,-9.85 c -10.68,0 -18.43,6 -25.27,11.22 l -0.09,0.07 c -11.64,9 -21.17,22.06 -26.84,36.84 a 87.26,87.26 0 0 0 -4.31,48.24 84.32,84.32 0 0 0 9.53,25.39 157,157 0 0 0 -17.45,-1 c -23.77,0 -44.56,5.79 -61.8,17.19 l -0.16,0.11 A 118.85,118.85 0 0 0 53,453.29 c -10.69,11.2 -15.36,22.57 -13.89,33.82 1.48,11.55 9.06,18.78 14.07,23.56 14.67,13.95 35.82,21.64 59.62,21.64 a 105.12,105.12 0 0 0 23.41,-2.61 102.75,102.75 0 0 0 38.22,-17.76 403,403 0 0 0 70.09,66.19 c 8.63,6.4 17.59,12.49 26.63,18.07 62.17,38.8 119.85,51.74 148.75,56.03 a 377.51,377.51 0 0 0 54.78,4 c 1.68,0 3.37,0 5,0 A 387,387 0 0 0 627,624.61 c 10.23,-4.36 18.44,-8.37 25.12,-11.71 20.53,-10.29 43.78,-21.95 64.33,-37.67 24,-18.34 40.83,-39.56 51.58,-64.87 3.23,-7.57 13.08,-30.67 14,-59.39 0.73,-21.77 -3.87,-42 -13.69,-60.14 -4,-7.37 -26.25,-44.75 -71.25,-57.43 a 106.51,106.51 0 0 0 -29.2,-4 c -18.05,0 -33.89,4.43 -45.46,7.67 -36,10.06 -60,27.64 -74.3,38.14 l -3.16,2.31 c -60.22,43.68 -131.24,65.36 -177.61,71.09 a 244.2,244.2 0 0 1 -29.94,1.85 c -31.94,0 -65.05,-6.17 -98.6,-18.35 7.24,-14.54 13.48,-34.15 11.75,-56.88 a 125.08,125.08 0 0 0 -14,-47.8 c -9.67,-17.82 -21.91,-27.63 -35.41,-28.38 -0.53,0 -1.06,0 -1.58,0 z"
       id="path5" />
    <path
       class="cls-3"
       d="m 772.27,450.72 c -0.87,26.76 -10.09,48.49 -13.23,55.86 -22.56,53.11 -69.71,76.76 -111.25,97.58 -5.71,2.86 -14,7 -24.59,11.47 -30.8,13.16 -81,30 -143.49,30.84 a 365.29,365.29 0 0 1 -58.25,-3.91 c -15.33,-2.28 -77.34,-12.47 -145,-54.66 -8.6,-5.32 -17.28,-11.18 -26,-17.61 A 394.23,394.23 0 0 1 176,498.16 a 94.12,94.12 0 0 1 -41.83,22 c -23.9,5.46 -54.52,2 -74,-16.56 C 55.39,499.1 50,493.82 49,485.9 c -2.53,-19.3 23,-36.15 29.79,-40.71 36.34,-24 81.57,-14.17 97.8,-9.8 -6.91,-6.5 -19.6,-20.53 -23.86,-41.9 -5.82,-29.43 7.05,-59.55 27.55,-75.35 6.58,-5.06 12.51,-9.65 20.39,-9.21 21.47,1.19 38,38.43 40.13,67.1 2.1,27.58 -8.82,49.6 -16.05,61.28 63.92,25.53 113.74,24.88 143.86,21.12 45.7,-5.65 119.38,-27.34 182.18,-72.89 13.67,-9.91 37.35,-28.6 74.34,-38.94 18.62,-5.21 41.83,-11.39 69.34,-3.65 42.48,12 62.77,48.05 65.26,52.64 10.19,18.76 13.12,37.96 12.54,55.13 z"
       id="path6" />
    <path
       class="cls-4"
       d="m 639.79,443.17 a 20.872566,20.872566 0 0 1 39.76,-12.72"
       id="path7" />
    <path
       class="cls-5"
       d="m 697.4,496.14 c -6,-0.1 -12,-0.15 -18.11,-0.15 C 504,496 352,533.25 276.47,587.88 c 67.67,42.22 129.68,52.41 145,54.67 a 358.85,358.85 0 0 0 58.27,3.89 c -5.16,9.75 -7.57,15.75 -12.1,25.5 -0.25,0.54 -2.76,6.94 -3.15,10.53 A 8.4,8.4 0 0 0 465,687 c 1.33,2.8 4.48,3.84 6,4.33 15.26,5 36.32,0.83 36.32,0.83 10.49,-2.56 20.38,-3.29 31.5,-8.31 22.1,-9.94 29,-12.11 38,-17.38 26.87,-15.74 39.81,-38.78 43.45,-45.42 1,-1.82 2,-3.59 2.91,-5.37 10.63,-4.52 18.9,-8.61 24.6,-11.46 41,-20.58 87.46,-43.9 110.34,-95.58 0.45,-1 0.89,-1.92 1.28,-2.95 0.1,-0.25 0.25,-0.54 0.4,-0.84 0,-0.05 0.05,-0.05 0.05,-0.1 0.1,-0.29 0.24,-0.54 0.34,-0.88 a 2.44,2.44 0 0 0 0.15,-0.35 c 0.34,-0.83 0.69,-1.72 1.08,-2.66 0.25,-0.59 0.49,-1.23 0.74,-2 h 0.05 c 0.3,-0.89 0.69,-1.83 1,-2.86 1.63,-4.53 3.5,-10.24 5.17,-16.88 -13.16,8 -37.52,14.21 -69.15,17 -0.35,0 -0.71,0 -1.07,0 z"
       id="path8" />
    <path
       class="cls-6"
       d="m 600.82,551.23 1.14,0.38 c 5.74,2 23.61,9.06 29.27,25.76 5.4,16 -3.56,31.93 -11.57,45.21 -23.4,38.78 -72,64.58 -116.13,70.36 -10.36,1.35 -23,3.27 -32.89,-1.13 a 11.18,11.18 0 0 1 -4.45,-3.23 10,10 0 0 1 -1.66,-7.12 c 2,-18.26 14.93,-35.74 23.87,-51.17 3.64,-6.27 8.43,-12.43 14.91,-16 6.86,-3.73 15.21,-2.13 22.08,-6.06 6.55,-3.75 12.23,-10.41 12.78,-18.17 0.61,-8.79 -5.35,-15.47 -7.2,-17.35"
       id="path9" />
  </g>
</svg>
